<svg xmlns="http://www.w3.org/2000/svg" data-name="Capa 4" viewBox="0 0 250.67 41.45"><path d="M178.16 13.87h9.66v27.59h-9.66z" style="fill:#22408e;stroke-width:0"/><path d="M199.66 13.87h11.43c3.35 0 6.1 2.95 6.1 6.54v13.85c0 3.6-2.76 6.54-6.1 6.54h-11.43c-3.37 0-6.1-2.95-6.1-6.54V20.41c0-3.6 2.74-6.54 6.1-6.54m10.31 8.04v10.67c0 5.85-8.88 5.51-8.88 0V21.91c0-5.68 8.88-5.83 8.88 0m12.94 18.89V13.82h4.99l17.8 13.03V13.82h4.97V40.8h-4.97l-17.8-13.95V40.8zm-129.55-.02c4.63.08 7.39.19 11.74.11 5.05-.13 11.59-2.04 11.74-7.13V13.91h-7.72v19.21c-.36 2.67-1.7 3.83-4.38 4.14-.86.08-2.5 0-3.56-.06V13.91h-7.95v19.27c-.02 3.91-2.65 4.06-7.72 4.02V13.91h-7.72V40.8h14.24l1.24-1.03.08 1.01Zm79.07-19.76h-5.55c-.06-3.49-3.35-2.42-4.69-2.52-.57-.04-.99.17-1.3.48-.29.34-.44.82-.46 1.49 0 .86.15 1.52.46 1.94 2.74 3.83 10.58 4.38 11.45 11.38.38 3.14-.97 6.35-3.85 6.78-2.42.36-10.27.42-12.58.04-1.87-.29-2.78-1.62-3.32-2.67-.82-1.6-.97-2.27-.93-4.1h5.53v.46c-.02.97.06 1.62.34 1.85.78.63 3.96.42 4.59.42s1.09-.17 1.41-.53.63-.88.48-1.56c-.55-2.67-3.54-3.51-5.07-4.59-2.17-1.51-4.06-2.61-4.82-3.11-.76-.48-1.39-1.18-1.87-2.06s-.72-2-.69-3.37c.02-1.96.4-3.41 1.14-4.31.72-.9 2.02-2.46 3.64-2.84 2.23-.53 9.68-.48 12.22.06 1.77.38 2.57 1.98 3.11 2.84.32.51.72 2.48.78 3.91Zm-42.46 5.68h8.27v-6.69c-2.46-2.34-5.34-2.67-8.27-.19zm8.27 3.24h-8.27v10.88h-7.41V18.94c1.07-2.04 3.05-4.44 6-5.03h10.56c3.16.11 5.39 2.5 6.69 5.03v21.88h-7.58V29.94ZM55.91 41.39l13.25-26.91L61.61 0h-3.96L39.03 37.81H34.3l11.49-23.33L38.25 0h-3.68L17.51 34.65 5.7 11.95l2.72-5.51 8.98 17.3 3.16-6.4L11.53 0H7.15L0 14.48l13.97 26.91h6.61L37.77 6.44l2.88 5.51-14.5 29.44H43.7L60.91 6.44l2.89 5.51-14.54 29.44z"/></svg>
